<svg xmlns="http://www.w3.org/2000/svg" viewBox="0 0 360 480" width="360" height="480">
  <defs>
    <filter id="glow-gold" x="-20%" y="-20%" width="140%" height="140%">
      <feGaussianBlur stdDeviation="6" result="blur"/>
      <feMerge>
        <feMergeNode in="blur"/>
        <feMergeNode in="SourceGraphic"/>
      </feMerge>
    </filter>
    <filter id="glow-fire" x="-20%" y="-20%" width="140%" height="140%">
      <feGaussianBlur stdDeviation="8" result="blur"/>
      <feMerge>
        <feMergeNode in="blur"/>
        <feMergeNode in="SourceGraphic"/>
      </feMerge>
    </filter>
    <filter id="glow-green" x="-20%" y="-20%" width="140%" height="140%">
      <feGaussianBlur stdDeviation="7" result="blur"/>
      <feMerge>
        <feMergeNode in="blur"/>
        <feMergeNode in="SourceGraphic"/>
      </feMerge>
    </filter>
    <linearGradient id="knife-blade" x1="0" y1="0" x2="1" y2="1">
      <stop offset="0%" stop-color="#ffffff"/>
      <stop offset="50%" stop-color="#d9e2ec"/>
      <stop offset="100%" stop-color="#9fb3c8"/>
    </linearGradient>
    <linearGradient id="wok-grad" x1="0" y1="0" x2="0" y2="1">
      <stop offset="0%" stop-color="#334e68"/>
      <stop offset="100%" stop-color="#102a43"/>
    </linearGradient>
    <linearGradient id="flame-grad" x1="0" y1="1" x2="0" y2="0">
      <stop offset="0%" stop-color="#d84c38"/>
      <stop offset="50%" stop-color="#f38b4a"/>
      <stop offset="100%" stop-color="#f7d070"/>
    </linearGradient>
    <linearGradient id="rx-grad" x1="0" y1="0" x2="1" y2="1">
      <stop offset="0%" stop-color="#347d69"/>
      <stop offset="100%" stop-color="#8ac6a7"/>
    </linearGradient>
  </defs>

    <g id="speed-cut">
      <!-- Cutting motion blur and diced cubes flying -->
      <g opacity="0.85">
        <rect x="80" y="270" width="18" height="18" rx="3" fill="#ffffff" stroke="#cbd5e0" stroke-width="1.5" transform="rotate(15 89 279)"/>
        <rect x="130" y="240" width="16" height="16" rx="3" fill="#ffffff" stroke="#cbd5e0" stroke-width="1.5" transform="rotate(-20 138 248)"/>
        <rect x="235" y="250" width="16" height="16" rx="3" fill="#ffffff" stroke="#cbd5e0" stroke-width="1.5" transform="rotate(35 243 258)"/>
        <circle cx="170" cy="235" r="6" fill="#48bb78"/>
        <circle cx="195" cy="225" r="5" fill="#48bb78"/>
        <circle cx="210" cy="245" r="6" fill="#48bb78"/>
      </g>
      <!-- Cutting arcs -->
      <path d="M120 280 Q180 230 240 280" fill="none" stroke="#f3b84a" stroke-width="4" stroke-dasharray="6,4"/>
      <path d="M135 295 Q180 250 225 295" fill="none" stroke="#ffe082" stroke-width="3"/>
      
    <!-- Legs & Shoes -->
    <path d="M138 360 L134 442 H162 L166 360 Z" fill="#102a43"/>
    <path d="M194 360 L198 442 H226 L222 360 Z" fill="#102a43"/>
    <rect x="126" y="442" width="38" height="18" rx="8" fill="#1e3a5f"/>
    <rect x="196" y="442" width="38" height="18" rx="8" fill="#1e3a5f"/>
    
      
    <!-- Torso: Lab coat over shirt & tie -->
    <path d="M134 155 L126 355 H234 L226 155 Z" fill="#f8fbff" stroke="#d9e2ec" stroke-width="2"/>
    <path d="M156 155 L180 200 L204 155 Z" fill="#eceff1"/>
    <!-- Yellow tie -->
    <polygon points="174,195 186,195 189,275 180,290 171,275" fill="#f3b84a"/>
    <!-- Coat lapels -->
    <path d="M134 155 L162 220 L144 280 L132 355" fill="none" stroke="#cfd8dc" stroke-width="2.5"/>
    <path d="M226 155 L198 220 L216 280 L228 355" fill="none" stroke="#cfd8dc" stroke-width="2.5"/>
    
      <!-- High speed dual knife flurry! -->
      <!-- Left knife thrust -->
      <path d="M135 170 Q110 210 130 250 L110 258 Q90 215 120 175 Z" fill="#f8fbff"/>
      <circle cx="132" cy="255" r="9" fill="#e6b88a"/>
      <path d="M136 250 L155 285 L145 288 L130 255 Z" fill="url(#knife-blade)" stroke="#9fb3c8" stroke-width="1.5"/>
      <!-- Right knife downstroke -->
      <path d="M225 170 Q250 205 230 255 L210 250 Q230 210 205 175 Z" fill="#f8fbff"/>
      <circle cx="228" cy="256" r="9" fill="#e6b88a"/>
      <path d="M228 252 L210 290 L200 285 L222 250 Z" fill="url(#knife-blade)" stroke="#9fb3c8" stroke-width="1.5"/>
      
    <!-- Head & Hair -->
    <circle cx="180" cy="105" r="46" fill="#e6b88a"/>
    <!-- Energetic swooping hair -->
    <path d="M134 95 Q140 55 180 53 Q224 55 228 97 Q210 80 188 83 Q156 85 134 95 Z" fill="#20252d"/>
    <path d="M160 60 Q170 43 195 55 Q175 57 160 60 Z" fill="#334050"/>
    <!-- Eyes -->
    <circle cx="162" cy="107" r="4" fill="#102a43"/>
    <circle cx="198" cy="107" r="4" fill="#102a43"/>
    <!-- Glasses -->
    <g fill="none" stroke="#26394c" stroke-width="3.5">
      <rect x="144" cy="95" width="28" height="22" rx="7"/>
      <rect x="188" cy="95" width="28" height="22" rx="7"/>
      <path d="M172 105 H188"/>
    </g>
    <!-- Eyebrows -->
    <path d="M148 89 Q160 83 172 87" fill="none" stroke="#20252d" stroke-width="3" stroke-linecap="round"/>
    <path d="M188 87 Q200 83 212 89" fill="none" stroke="#20252d" stroke-width="3" stroke-linecap="round"/>
    <path d="M162 129 Q180 147 198 129 Z" fill="#7a4b3f"/><path d="M168 130 Q180 138 192 130" fill="#ffffff"/>
    
    </g>
    
</svg>