<svg xmlns="http://www.w3.org/2000/svg" viewBox="0 0 320 440" width="320" height="440">
  <defs>
    <filter id="pat-glow" x="-20%" y="-20%" width="140%" height="140%">
      <feGaussianBlur stdDeviation="6" result="blur"/>
      <feMerge>
        <feMergeNode in="blur"/>
        <feMergeNode in="SourceGraphic"/>
      </feMerge>
    </filter>
    <linearGradient id="bowl-grad" x1="0" y1="0" x2="0" y2="1">
      <stop offset="0%" stop-color="#ffffff"/>
      <stop offset="100%" stop-color="#e2e8f0"/>
    </linearGradient>
    <linearGradient id="tofu-red" x1="0" y1="0" x2="1" y2="1">
      <stop offset="0%" stop-color="#e53e3e"/>
      <stop offset="100%" stop-color="#9b2c2c"/>
    </linearGradient>
  </defs>

    <g id="auntie-order">
      
    <!-- Clinic Consultation Chair -->
    <rect x="115" y="270" width="90" height="12" rx="5" fill="#718096" stroke="#4a5568" stroke-width="1.5"/>
    <rect x="122" y="215" width="76" height="58" rx="8" fill="#4a5568" stroke="#2d3748" stroke-width="2"/>
    <!-- Chair stem & caster base -->
    <rect x="154" y="282" width="12" height="50" rx="3" fill="#a0aec0"/>
    <path d="M120 332 L200 332" stroke="#2d3748" stroke-width="5" stroke-linecap="round"/>
    <circle cx="124" cy="336" r="5" fill="#1a202c"/>
    <circle cx="196" cy="336" r="5" fill="#1a202c"/>
    
      <path d="M135 270 L130 350 L120 375" stroke="#4a5568" stroke-width="16" stroke-linecap="round"/>
      <path d="M185 270 L190 350 L200 375" stroke="#4a5568" stroke-width="16" stroke-linecap="round"/>
      <path d="M115 145 L110 275 H210 L205 145 Z" fill="#dd6b20"/>
      <!-- Expressive auntie hands: 豆腐多一點！記得吃飯喔！ -->
      <path d="M115 150 L85 190 L95 160" stroke="#dd6b20" stroke-width="14" stroke-linecap="round"/>
      <circle cx="98" cy="156" r="7" fill="#e6b88a"/>
      <path d="M205 150 L235 190 L225 160" stroke="#dd6b20" stroke-width="14" stroke-linecap="round"/>
      <circle cx="222" cy="156" r="7" fill="#e6b88a"/>
      <!-- Speech bubble -->
      <rect x="175" y="25" width="135" height="42" rx="12" fill="#ffffff" stroke="#dd6b20" stroke-width="2"/>
      <text x="242" y="51" font-family="sans-serif" font-size="12" font-weight="bold" fill="#c05621" text-anchor="middle">豆腐多一點！</text>
      <polygon points="190,67 200,67 185,80" fill="#ffffff" stroke="#dd6b20" stroke-width="1.5"/>
      
    <!-- Head & Auntie perm curls -->
    <circle cx="160" cy="105" r="42" fill="#e6b88a"/>
    <!-- Curls -->
    <circle cx="124" cy="87" r="14" fill="#5a3a22"/>
    <circle cx="136" cy="67" r="15" fill="#5a3a22"/>
    <circle cx="160" cy="61" r="16" fill="#5a3a22"/>
    <circle cx="184" cy="67" r="15" fill="#5a3a22"/>
    <circle cx="196" cy="87" r="14" fill="#5a3a22"/>
    <!-- Cheerful eyes with laugh lines -->
    <path d="M138 109 Q146 103 154 109" stroke="#1a202c" stroke-width="3" fill="none"/>
    <path d="M166 109 Q174 103 182 109" stroke="#1a202c" stroke-width="3" fill="none"/>
    <!-- Rosy cheeks -->
    <circle cx="138" cy="121" r="7" fill="#fed7d7" opacity="0.8"/>
    <circle cx="182" cy="121" r="7" fill="#fed7d7" opacity="0.8"/>
    <path d="M146 129 Q160 141 174 129" stroke="#742a2a" stroke-width="3" fill="none"/>
    
    </g>
    
</svg>